<?xml version="1.0" encoding="utf-8"?>
<!-- Generator: Adobe Illustrator 26.0.1, SVG Export Plug-In . SVG Version: 6.00 Build 0)  -->
<svg version="1.1" id="图层_1" xmlns="http://www.w3.org/2000/svg" xmlns:xlink="http://www.w3.org/1999/xlink" x="0px" y="0px"
	 viewBox="0 0 500 500" style="enable-background:new 0 0 500 500;" xml:space="preserve">
<style type="text/css">
	.st0{fill:#48EEFF;}
	.st1{fill:url(#SVGID_1_);}
	.st2{fill:url(#SVGID_00000119828574599203272110000015017926157970859432_);}
	.st3{fill:url(#SVGID_00000178887635070225771930000000292887854745284251_);}
	.st4{fill:url(#SVGID_00000100350312327900320180000011241891031087666352_);}
	.st5{fill:url(#SVGID_00000116951271228724657160000002201329529483174574_);}
	.st6{fill:url(#SVGID_00000153675047589226351080000013446241176431471492_);}
	.st7{fill:url(#SVGID_00000067943663787672413680000017333491651182273408_);}
	.st8{fill:url(#SVGID_00000025400403977365076380000006088544642094903958_);}
	.st9{fill:url(#SVGID_00000016052735052738151410000015938203721247161236_);}
	.st10{fill:url(#SVGID_00000084510393055710122090000012123780546418288787_);}
	.st11{fill:url(#SVGID_00000047740869226175657960000010183406929224516542_);}
	.st12{fill:url(#SVGID_00000008832685645912023120000000135772692024638606_);}
	.st13{fill:url(#SVGID_00000139291547002548817480000000164693791095332795_);}
</style>
<g>
	<g>
		<g>
			<path class="st0" d="M294.7,230c0,15-7.7,28.4-20.7,35.9l-10.9,6.3c4.6-5.2,7.5-12.1,7.5-19.6c0-11.2-6.2-20.9-15.4-25.9
				c0,0-0.1,0-0.1,0l-24.4-14.1c-9-5.2-12.1-16.7-6.9-25.7c5.2-9,16.7-12.1,25.7-6.9l24.5,14.1C286.9,201.6,294.7,215,294.7,230z"/>
		</g>
		<linearGradient id="SVGID_1_" gradientUnits="userSpaceOnUse" x1="147.1868" y1="160.6033" x2="353.0274" y2="160.6033">
			<stop  offset="0" style="stop-color:#3FA9F5"/>
			<stop  offset="1" style="stop-color:#015CD1"/>
		</linearGradient>
		<path class="st1" d="M330.5,155.3l-116.1-67c-14.1-8.1-30.9-8.1-45,0c-12.8,7.4-20.9,20.1-22.3,34.5c7.5-4.8,16.3-7.6,25.8-7.6
			c7.7,0,15,1.8,21.4,5.1c0.4,0.2,0.8,0.3,1.3,0.6l78.1,45.1c0,0,0.1,0,0.1,0.1l24.5,14.1c1.4,0.8,2.7,1.6,3.9,2.5
			c0,0,0.1,0,0.1,0.1c12.7,8.7,21,23.3,21,39.8c0,5.8-1,11.3-2.9,16.5l10.1-5.8c14.1-8.1,22.5-22.7,22.5-39
			C353,178,344.6,163.4,330.5,155.3z"/>
		
			<linearGradient id="SVGID_00000061460056862572114180000015488525994754066820_" gradientUnits="userSpaceOnUse" x1="182.9905" y1="306.3193" x2="182.9905" y2="115.1938">
			<stop  offset="0" style="stop-color:#3FA9F5"/>
			<stop  offset="1" style="stop-color:#015CD1"/>
		</linearGradient>
		<path style="fill:url(#SVGID_00000061460056862572114180000015488525994754066820_);" d="M184.6,262.1c0-0.3,0-0.5,0-0.8v-51.8
			v-82.2c0-3.7,2.3-5.6,3.7-6.4c0.8-0.5,2.1-1,3.7-1c0.7,0,1.6,0.1,2.4,0.5c-6.4-3.2-13.7-5.1-21.4-5.1c-9.5,0-18.4,2.8-25.8,7.6
			c-0.1,1.5-0.2,3-0.2,4.5v75.9v58.1c0,16.3,8.4,30.8,22.5,39c7,4.1,14.8,6.1,22.5,6.1c7.7,0,15.5-2,22.5-6.1l4.5-2.6
			C200.1,296.5,185.1,281.1,184.6,262.1z"/>
		
			<linearGradient id="SVGID_00000006678190613461675460000007187645842926063005_" gradientUnits="userSpaceOnUse" x1="221.2332" y1="306.3193" x2="221.2332" y2="115.1938">
			<stop  offset="0" style="stop-color:#008DDD"/>
			<stop  offset="1" style="stop-color:#015CD1"/>
		</linearGradient>
		<path style="fill:url(#SVGID_00000006678190613461675460000007187645842926063005_);" d="M248.8,237l-15.8,9.1l-37.3,21.6
			c-3.2,1.9-6,0.8-7.4,0c-1.3-0.7-3.4-2.4-3.7-5.6c0.5,19,15.5,34.4,34.4,35.5l35-20.2c2.5-4.9,3.9-10.5,3.9-16.4
			C257.9,251.8,254.5,243.4,248.8,237z"/>
		
			<linearGradient id="SVGID_00000124849064126418582690000000028934426838103445_" gradientUnits="userSpaceOnUse" x1="270.547" y1="263.9601" x2="184.6069" y2="263.9601">
			<stop  offset="0" style="stop-color:#3FA9F5"/>
			<stop  offset="1" style="stop-color:#015CD1"/>
		</linearGradient>
		<path style="fill:url(#SVGID_00000124849064126418582690000000028934426838103445_);" d="M260.4,230.3l-11.5,6.6l-15.8,9.1
			l-37.3,21.6c-3.2,1.9-6,0.8-7.4,0c-1.3-0.7-3.4-2.4-3.7-5.6c0.5,19,15.5,34.4,34.4,35.5l35-20.2l9.1-5.2
			c4.6-5.2,7.5-12.1,7.5-19.6C270.5,243.7,266.6,235.7,260.4,230.3z"/>
	</g>
	<g>
		<g>
			
				<linearGradient id="SVGID_00000130633507193607756150000002385644475432966074_" gradientUnits="userSpaceOnUse" x1="99.6946" y1="360.3075" x2="99.6946" y2="406.8636">
				<stop  offset="0" style="stop-color:#3FA9F5"/>
				<stop  offset="1" style="stop-color:#015CD1"/>
			</linearGradient>
			<path style="fill:url(#SVGID_00000130633507193607756150000002385644475432966074_);" d="M118,383.1v23.1h-3.6l-2.5-6.1
				c-2.6,4.5-6.7,6.8-12.2,6.8c-6.2,0-10.7-2.3-13.8-7c-3-4.7-4.6-10.1-4.6-16.2c0-6.5,1.7-12,5.1-16.5c3.4-4.5,8.1-6.8,14.2-6.8
				c4.5,0,8.3,1.3,11.2,4c2.9,2.6,4.8,5.9,5.6,9.8l-7.1,1.3c-1.3-5.5-4.5-8.3-9.5-8.3c-3.2,0-5.8,1.3-7.8,3.9c-2,2.6-3,6.6-3,12
				c0,11.4,3.6,17.1,10.7,17.1c2.8,0,5.1-1,6.9-2.9c1.8-1.9,2.7-4.5,2.7-7.6H101v-6.6H118z"/>
			
				<linearGradient id="SVGID_00000085235683747417746890000006953334919517711016_" gradientUnits="userSpaceOnUse" x1="140.0631" y1="372.0541" x2="140.0631" y2="406.8636">
				<stop  offset="0" style="stop-color:#3FA9F5"/>
				<stop  offset="1" style="stop-color:#015CD1"/>
			</linearGradient>
			<path style="fill:url(#SVGID_00000085235683747417746890000006953334919517711016_);" d="M148.1,395.5l6.8,0.9
				c-0.9,3-2.6,5.5-5.2,7.5c-2.6,2-5.8,2.9-9.6,2.9c-4.6,0-8.4-1.6-11.2-4.7c-2.8-3.1-4.2-7.3-4.2-12.6c0-5.1,1.4-9.2,4.3-12.5
				c2.8-3.3,6.7-5,11.6-5c4.8,0,8.4,1.6,11.1,4.9c2.6,3.3,3.9,7.5,3.9,12.6l0,0.9h-22.9c0,2.3,0.2,4.1,0.6,5.5
				c0.4,1.4,1.3,2.6,2.6,3.6c1.3,1,2.9,1.5,4.8,1.5C144.2,400.9,146.8,399.1,148.1,395.5z M147.6,385.5c0-2.4-0.7-4.4-2.2-5.9
				c-1.4-1.5-3.2-2.3-5.3-2.3c-2.1,0-3.8,0.7-5.2,2.1c-1.4,1.4-2.2,3.4-2.4,6H147.6z"/>
			
				<linearGradient id="SVGID_00000152980664165409257760000005566395608644154506_" gradientUnits="userSpaceOnUse" x1="176.1785" y1="372.0541" x2="176.1785" y2="406.1685">
				<stop  offset="0" style="stop-color:#3FA9F5"/>
				<stop  offset="1" style="stop-color:#015CD1"/>
			</linearGradient>
			<path style="fill:url(#SVGID_00000152980664165409257760000005566395608644154506_);" d="M190,406.2h-7.5v-20.9
				c0-2.2-0.5-3.9-1.5-5c-1-1.1-2.2-1.7-3.7-1.7c-2,0-3.7,0.9-5.2,2.6c-1.5,1.7-2.2,4.3-2.2,7.8v17.2h-7.5v-33.4h6.9v7.7
				c2.4-5.6,5.8-8.4,10.1-8.4c2.9,0,5.4,0.9,7.5,2.8c2.1,1.9,3.1,5.1,3.1,9.8V406.2z"/>
			
				<linearGradient id="SVGID_00000049932554420360190270000008686796231567629985_" gradientUnits="userSpaceOnUse" x1="202.6502" y1="385.8852" x2="202.6502" y2="392.0728">
				<stop  offset="0" style="stop-color:#3FA9F5"/>
				<stop  offset="1" style="stop-color:#015CD1"/>
			</linearGradient>
			<path style="fill:url(#SVGID_00000049932554420360190270000008686796231567629985_);" d="M211,385.9v6.2h-16.6v-6.2H211z"/>
			
				<linearGradient id="SVGID_00000109010523773310777720000005075263230419838089_" gradientUnits="userSpaceOnUse" x1="232.546" y1="361.0025" x2="232.546" y2="406.1685">
				<stop  offset="0" style="stop-color:#3FA9F5"/>
				<stop  offset="1" style="stop-color:#015CD1"/>
			</linearGradient>
			<path style="fill:url(#SVGID_00000109010523773310777720000005075263230419838089_);" d="M249.3,406.2h-8.1v-19.6h-17.2v19.6
				h-8.1V361h8.1v18.6h17.2V361h8.1V406.2z"/>
			
				<linearGradient id="SVGID_00000036945073666677727410000010767419379807664025_" gradientUnits="userSpaceOnUse" x1="272.5497" y1="372.7492" x2="272.5497" y2="406.8636">
				<stop  offset="0" style="stop-color:#3FA9F5"/>
				<stop  offset="1" style="stop-color:#015CD1"/>
			</linearGradient>
			<path style="fill:url(#SVGID_00000036945073666677727410000010767419379807664025_);" d="M286.3,406.2h-7V399
				c-1.9,5.3-5.4,7.9-10.6,7.9c-3,0-5.5-0.9-7.2-2.8c-1.8-1.9-2.7-4.5-2.7-7.9v-23.4h7.7v21.8c0,2.4,0.5,4,1.6,4.7
				c1.1,0.8,2.1,1.1,3.1,1.1c1.6,0,3.3-0.7,5-2.2c1.7-1.5,2.5-4.6,2.5-9.4v-16h7.5V406.2z"/>
			
				<linearGradient id="SVGID_00000060001021667532774220000008607290688481130397_" gradientUnits="userSpaceOnUse" x1="320.2988" y1="372.0541" x2="320.2988" y2="406.1685">
				<stop  offset="0" style="stop-color:#3FA9F5"/>
				<stop  offset="1" style="stop-color:#015CD1"/>
			</linearGradient>
			<path style="fill:url(#SVGID_00000060001021667532774220000008607290688481130397_);" d="M345.3,406.2h-7.9v-20.8
				c0-4.3-1.9-6.5-5.8-6.5c-2.2,0-4,0.8-5.3,2.4c-1.3,1.6-2,4.1-2,7.3v17.5h-8v-20.8c0-4.4-1.8-6.6-5.4-6.6c-2.2,0-4,0.9-5.5,2.6
				c-1.5,1.8-2.2,4.2-2.2,7.2v17.5h-7.8v-33.4h7.3v7.1c2.4-5.2,6.1-7.8,11.2-7.8c4.9,0,8.1,2.6,9.6,7.8c2.7-5.2,6.4-7.8,11.2-7.8
				c3.2,0,5.8,1,7.8,3c2,2,2.9,4.5,2.9,7.5V406.2z"/>
			
				<linearGradient id="SVGID_00000075152826449944229420000013265566031947254916_" gradientUnits="userSpaceOnUse" x1="367.5652" y1="372.0541" x2="367.5652" y2="406.8636">
				<stop  offset="0" style="stop-color:#3FA9F5"/>
				<stop  offset="1" style="stop-color:#015CD1"/>
			</linearGradient>
			<path style="fill:url(#SVGID_00000075152826449944229420000013265566031947254916_);" d="M382.9,406.2h-7.2c-0.6-2-1-4.3-1.2-6.8
				c-2,5-5.8,7.4-11.3,7.4c-3.3,0-6-1-8-2.9c-2-2-3-4.4-3-7.4c0-7.7,6.7-11.5,20.2-11.5c0.5,0,1.2,0,2.2,0v-2.5
				c0-3.5-2.4-5.2-7.1-5.2c-4.6,0-7.2,1.7-7.8,5.2l-6.4-1c0.4-2.8,1.8-5.1,4.3-6.9c2.5-1.8,6.2-2.7,10.9-2.7c2.6,0,4.7,0.2,6.3,0.6
				c1.6,0.4,3,1.2,4.1,2.2c1.1,1,1.9,2.1,2.3,3.3c0.4,1.2,0.6,3.2,0.6,6.1v15.1C381.9,401.6,382.3,403.9,382.9,406.2z M374.6,389.2
				c-9.8,0-14.6,2.3-14.6,7c0,1.4,0.5,2.6,1.5,3.6c1,1,2.5,1.5,4.4,1.5c2.9,0,5-0.9,6.5-2.7s2.2-3.9,2.2-6.2V389.2z"/>
			
				<linearGradient id="SVGID_00000070110449613033155010000005707747293067434160_" gradientUnits="userSpaceOnUse" x1="404.7894" y1="372.0541" x2="404.7894" y2="406.1685">
				<stop  offset="0" style="stop-color:#3FA9F5"/>
				<stop  offset="1" style="stop-color:#015CD1"/>
			</linearGradient>
			<path style="fill:url(#SVGID_00000070110449613033155010000005707747293067434160_);" d="M418.6,406.2h-7.5v-20.9
				c0-2.2-0.5-3.9-1.5-5c-1-1.1-2.2-1.7-3.7-1.7c-2,0-3.7,0.9-5.2,2.6c-1.5,1.7-2.2,4.3-2.2,7.8v17.2H391v-33.4h6.9v7.7
				c2.4-5.6,5.8-8.4,10.1-8.4c2.9,0,5.4,0.9,7.5,2.8c2.1,1.9,3.1,5.1,3.1,9.8V406.2z"/>
		</g>
	</g>
</g>
</svg>
